<svg width="48" height="48" viewBox="0 0 48 48" fill="none" xmlns="http://www.w3.org/2000/svg">
<path d="M10.1546 6.09395C10.3562 5.63987 10.8878 5.43542 11.3421 5.63692H11.343C11.344 5.63736 11.3459 5.63797 11.3479 5.63887L11.4456 5.68282C11.5144 5.7131 11.6165 5.75757 11.7473 5.81465C12.009 5.92884 12.3872 6.09266 12.8518 6.29122C13.7817 6.68863 15.0565 7.22404 16.4378 7.77657C19.2419 8.89823 22.357 10.0376 23.97 10.301C25.9581 10.6256 27.4354 11.6777 28.3743 13.1838C29.2979 14.6657 29.6714 16.5346 29.596 18.4953C29.582 19.1526 29.6812 20.0912 29.8499 21.2541C30.0187 22.4182 30.2447 23.7287 30.468 25.1311C30.9072 27.8887 31.3324 30.9732 31.1467 33.424V33.426C31.0202 35.0553 31.4094 35.9664 31.9417 36.5656C32.5153 37.2113 33.3555 37.6168 34.3977 38.0363C35.3647 38.4256 36.5862 38.8496 37.511 39.5637C38.5202 40.3431 39.1932 41.463 39.1975 43.1525L39.1936 43.3879C39.1652 43.9306 38.9982 44.4255 38.6633 44.8342C38.2904 45.2892 37.7828 45.5475 37.2708 45.6945C36.2843 45.9777 35.0098 45.9214 33.7815 45.8029C33.1493 45.742 32.4878 45.6591 31.8391 45.5793C31.1852 45.4988 30.5407 45.4217 29.9182 45.3664C28.6483 45.2537 27.5797 45.2475 26.8079 45.4514L26.7971 45.4543C25.6014 45.7532 24.0723 45.8444 22.9749 44.9279C21.8288 43.9706 21.5479 42.2667 22.0257 39.9514L22.0266 39.9484C22.1811 39.2148 22.394 38.413 22.5315 37.5705C22.6721 36.7094 22.6813 36.0672 22.553 35.7033V35.7023C21.9939 34.1929 20.8305 31.6472 19.9505 28.9104C19.052 26.116 18.3578 22.8885 18.6946 19.7072C18.7469 19.2131 19.1897 18.8544 19.6839 18.9064C20.1781 18.9588 20.537 19.4024 20.4846 19.8967C20.1862 22.7159 20.798 25.6652 21.6643 28.3596C22.4364 30.7606 23.3416 32.7821 23.9866 34.4152L24.2464 35.091L24.2503 35.1037C24.5454 35.94 24.4496 36.9923 24.3079 37.8605C24.1634 38.7458 23.9165 39.7068 23.7883 40.3147C23.3485 42.4463 23.7742 43.2502 24.1282 43.5461C24.5309 43.8825 25.2974 43.974 26.3606 43.7082C27.4573 43.4213 28.793 43.4594 30.0774 43.5734C30.7343 43.6318 31.407 43.7129 32.0589 43.7932C32.7162 43.8741 33.3511 43.9537 33.9544 44.0119C35.1965 44.1317 36.1542 44.1418 36.7737 43.9641C37.0645 43.8806 37.2035 43.7758 37.2717 43.6926C37.3301 43.6211 37.4034 43.4853 37.3977 43.1857C37.3976 43.1802 37.3977 43.1747 37.3977 43.1691C37.3977 42.0444 36.9948 41.4397 36.4104 40.9885C35.738 40.4693 34.8413 40.1553 33.7258 39.7063C32.6858 39.2876 31.4783 38.7541 30.596 37.7609C29.6722 36.721 29.196 35.2927 29.3518 33.2863C29.5188 31.0781 29.1329 28.1975 28.6897 25.4143C28.4718 24.0461 28.2395 22.6915 28.0686 21.5129C27.8987 20.341 27.7765 19.2632 27.7962 18.4387L27.7971 18.426C27.8629 16.7157 27.5294 15.2308 26.8469 14.1359C26.1797 13.0656 25.1509 12.3175 23.6799 12.0773C21.8336 11.7758 18.5247 10.5504 15.7698 9.44844C14.3716 8.88916 13.0825 8.34765 12.1438 7.94649C11.6745 7.74589 11.2919 7.57983 11.0266 7.46407C10.8945 7.40639 10.7913 7.36125 10.721 7.33028C10.6857 7.31477 10.6582 7.30222 10.6399 7.29414C10.631 7.29021 10.6241 7.28743 10.6194 7.28536C10.617 7.28431 10.6148 7.28297 10.6135 7.28243H10.6116C10.1573 7.08086 9.95301 6.5483 10.1546 6.09395Z" fill="black"/>
<path d="M9.10456 18.6965L9.01277 19.4855C9.09922 18.7461 9.10488 18.6994 9.10554 18.6965H9.10847C9.10985 18.6966 9.11145 18.6972 9.11335 18.6975C9.11768 18.698 9.12399 18.6985 9.13093 18.6994C9.14477 18.7012 9.16374 18.7039 9.18757 18.7072C9.23569 18.714 9.30384 18.7241 9.3907 18.7385C9.56474 18.7673 9.81436 18.8128 10.128 18.882C10.7554 19.0206 11.6428 19.2533 12.7022 19.634C14.8201 20.395 17.6369 21.7497 20.4522 24.1262C20.832 24.4468 20.8803 25.0149 20.5596 25.3947C20.239 25.7745 19.6709 25.8228 19.2911 25.5021C16.6707 23.2901 14.0518 22.0322 12.0928 21.3283C11.1139 20.9766 10.3019 20.7638 9.74031 20.6398C9.45975 20.5779 9.24211 20.5377 9.09773 20.5139C9.02568 20.502 8.97167 20.4942 8.93757 20.4895C8.92072 20.4871 8.90849 20.4855 8.90144 20.4846C8.89801 20.4841 8.89558 20.4837 8.8946 20.4836L8.89558 20.4826C8.40197 20.4248 8.04882 19.9792 8.10652 19.4855C8.16425 18.9919 8.61088 18.6388 9.10456 18.6965Z" fill="black"/>
<path d="M35.4828 7.57759C35.84 7.23197 36.4096 7.24103 36.7553 7.5981C37.1009 7.9552 37.0918 8.52487 36.7348 8.87056L34.5463 10.9887C34.3252 11.2027 34.0096 11.2888 33.7104 11.2172C33.4114 11.1455 33.17 10.9259 33.0698 10.6352L32.8325 9.94868L31.6625 11.1196C31.3111 11.4711 30.7406 11.4711 30.3891 11.1196C30.0379 10.7682 30.038 10.1986 30.3891 9.84712L32.5776 7.65864C32.7969 7.43929 33.1142 7.34777 33.4164 7.41743C33.7188 7.48716 33.9637 7.7081 34.0649 8.00142L34.31 8.71138L35.4828 7.57759Z" fill="black"/>
<path d="M25.5366 8.22363V5.11816C25.5366 4.80642 25.6983 4.51657 25.9634 4.35254C26.2286 4.18861 26.5604 4.17315 26.8394 4.3125L27.5142 4.64941V3C27.5142 2.50298 27.9166 2.09968 28.4136 2.09961C28.9106 2.09961 29.314 2.50294 29.314 3V6.10645C29.3139 6.41823 29.1524 6.70811 28.8872 6.87207C28.6219 7.03606 28.2902 7.05063 28.0112 6.91113L27.3374 6.57422V8.22363C27.3374 8.72069 26.9341 9.12402 26.437 9.12402C25.94 9.12402 25.5366 8.72069 25.5366 8.22363Z" fill="black"/>
<path d="M37.4497 13.8185C37.9468 13.8185 38.3501 14.2219 38.3501 14.7189C38.3501 15.216 37.9468 15.6193 37.4497 15.6193H35.7778L36.1431 16.3752C36.2775 16.654 36.2588 16.9821 36.0942 17.2443C35.9296 17.5066 35.6421 17.6661 35.3325 17.6662H32.2261C31.729 17.6662 31.3257 17.2629 31.3257 16.7658C31.3259 16.2689 31.7292 15.8664 32.2261 15.8664H33.8989L33.5337 15.1105C33.3991 14.8316 33.4169 14.5027 33.5815 14.2404C33.7462 13.9781 34.0345 13.8185 34.3442 13.8185H37.4497Z" fill="black"/>
</svg>
