<svg width="48" height="48" viewBox="0 0 48 48" fill="none" xmlns="http://www.w3.org/2000/svg">
<path d="M26.7119 26.6072C26.7119 22.9023 23.7088 19.8985 20.0039 19.8983C16.2988 19.8983 13.2949 22.9022 13.2949 26.6072C13.2951 30.3121 16.299 33.3152 20.0039 33.3152C23.7087 33.3151 26.7117 30.312 26.7119 26.6072ZM28.2119 26.6072C28.2117 31.1404 24.5371 34.8151 20.0039 34.8152C15.4705 34.8152 11.7951 31.1406 11.7949 26.6072C11.7949 22.0737 15.4704 18.3983 20.0039 18.3983C24.5372 18.3985 28.2119 22.0739 28.2119 26.6072Z" fill="black"/>
<path d="M25.835 30.0697C26.0022 29.6909 26.4444 29.5189 26.8232 29.6859C32.6638 32.2648 36.7568 38.1785 36.7568 45.0003C36.7567 45.4144 36.4209 45.7503 36.0068 45.7503H4C3.5859 45.7503 3.25019 45.4144 3.25 45.0003C3.25 38.1771 7.34424 32.2631 13.2588 29.6849C13.6385 29.5194 14.0805 29.693 14.2461 30.0726C14.4116 30.4523 14.238 30.8944 13.8584 31.0599C8.69424 33.3109 5.05662 38.3583 4.77051 44.2503H35.2363C34.9503 38.3569 31.3139 33.3093 26.2178 31.0589C25.8389 30.8916 25.6677 30.4486 25.835 30.0697Z" fill="black"/>
<path d="M11.0708 44.9996V39.569C11.0708 39.1548 11.4066 38.819 11.8208 38.819C12.235 38.819 12.5708 39.1548 12.5708 39.569V44.9996C12.5708 45.4138 12.235 45.7496 11.8208 45.7496C11.4066 45.7496 11.0708 45.4138 11.0708 44.9996Z" fill="black"/>
<path d="M27.4363 44.9996V39.569C27.4363 39.1548 27.7721 38.819 28.1863 38.819C28.6005 38.819 28.9363 39.1548 28.9363 39.569V44.9996C28.9363 45.4138 28.6005 45.7496 28.1863 45.7496C27.7721 45.7496 27.4363 45.4138 27.4363 44.9996Z" fill="black"/>
<path d="M37.7446 6.01556C38.1588 6.01556 38.4946 6.35135 38.4946 6.76556V13.6445C38.4946 14.0587 38.1588 14.3945 37.7446 14.3945H28.1138C27.6996 14.3945 27.3638 14.0587 27.3638 13.6445V6.76556C27.3638 6.35135 27.6996 6.01556 28.1138 6.01556H37.7446ZM28.8638 12.8945H36.9946V7.51556H28.8638V12.8945Z" fill="black"/>
<path d="M40.1345 7.68103C40.5487 7.68111 40.8845 8.01686 40.8845 8.43103V11.8344C40.8845 12.2485 40.5487 12.5843 40.1345 12.5844H37.8171C37.4029 12.5844 37.0671 12.2486 37.0671 11.8344V8.43103C37.0671 8.01682 37.4029 7.68103 37.8171 7.68103H40.1345ZM38.5671 11.0844H39.3845V9.18103H38.5671V11.0844Z" fill="black"/>
<path d="M29.8257 11.3277V9.01031C29.8257 8.5961 30.1615 8.26031 30.5757 8.26031C30.9899 8.26031 31.3257 8.5961 31.3257 9.01031V11.3277C31.3256 11.7418 30.9898 12.0777 30.5757 12.0777C30.1615 12.0777 29.8258 11.7418 29.8257 11.3277Z" fill="black"/>
<path d="M43.1501 14.7314V5.67969C43.1501 4.63235 42.3138 3.75 41.2205 3.75H26.5935C25.5594 3.75 24.6638 4.64563 24.6638 5.67969V14.8037C24.664 15.8509 25.5003 16.7324 26.5935 16.7324H28.6931C29.1072 16.7324 29.4429 17.0684 29.4431 17.4824V19.6895L32.7673 16.8408L32.8757 16.7637C32.9901 16.6965 33.1214 16.6602 33.2556 16.6602H41.2205C42.2544 16.6602 43.1499 15.7653 43.1501 14.7314ZM44.6501 14.7314C44.6499 16.5938 43.0828 18.1602 41.2205 18.1602H33.532L29.1814 21.8896C28.959 22.0803 28.6457 22.1243 28.3796 22.002C28.1136 21.8795 27.9431 21.6132 27.9431 21.3203V18.2324H26.5935C24.6455 18.2324 23.164 16.6528 23.1638 14.8037V5.67969C23.1638 3.8172 24.731 2.25 26.5935 2.25H41.2205C43.1685 2.25 44.6501 3.83048 44.6501 5.67969V14.7314Z" fill="black"/>
</svg>
