<svg width="48" height="48" viewBox="0 0 48 48" fill="none" xmlns="http://www.w3.org/2000/svg">
<path d="M7.25 45.0003V43.6966C7.25 41.3253 8.27663 38.8966 10.3301 37.5003C11.6194 36.5429 13.1441 36.0677 14.7344 36.0677C16.329 36.0677 17.9456 35.3627 19.1143 34.1292C19.3991 33.8285 19.8741 33.8151 20.1748 34.0999C20.4755 34.3847 20.4879 34.8597 20.2031 35.1604C18.7649 36.6786 16.7604 37.5677 14.7344 37.5677C13.4398 37.5677 12.2241 37.9546 11.2021 38.721C11.193 38.7278 11.1833 38.7341 11.1738 38.7405C9.60658 39.8063 8.75 41.7231 8.75 43.6966V45.0003L8.74609 45.0765C8.70778 45.4548 8.3884 45.7503 8 45.7503C7.6116 45.7503 7.29222 45.4548 7.25391 45.0765L7.25 45.0003Z" fill="black"/>
<path d="M39.4013 45.0003V43.6966C39.4013 41.7539 38.4942 39.882 36.955 38.7249C35.9038 38.0072 34.6806 37.5677 33.4169 37.5677C31.38 37.5676 29.4583 36.6706 27.9628 35.1751C27.6699 34.8822 27.6699 34.4074 27.9628 34.1145C28.2557 33.8216 28.7305 33.8216 29.0234 34.1145C30.2795 35.3706 31.8334 36.0676 33.4169 36.0677C34.9401 36.0677 36.3724 36.567 37.5849 37.344L37.8251 37.5022L37.8496 37.5208C39.7831 38.9709 40.9013 41.2966 40.9013 43.6966V45.0003C40.9012 45.4144 40.5654 45.7503 40.1513 45.7503C39.7374 45.7501 39.4015 45.4142 39.4013 45.0003Z" fill="black"/>
<path d="M33.8257 24.4344C33.8256 23.8349 33.3647 23.3738 32.7651 23.3738H32.3306C31.9165 23.3737 31.5806 23.038 31.5806 22.6238C31.5804 18.4761 28.2234 15.119 24.0757 15.119C19.9279 15.119 16.571 18.4761 16.5708 22.6238C16.5708 23.038 16.2349 23.3737 15.8208 23.3738H15.3862C14.7867 23.3738 14.3257 23.8349 14.3257 24.4344V25.7381C14.3258 26.1817 14.5997 26.5749 15.0649 26.7693L16.0269 27.0447L16.1284 27.0818C16.3577 27.1851 16.523 27.3979 16.562 27.6512C16.9675 30.287 18.5293 32.9964 20.812 34.6092C21.8429 35.3167 22.9239 35.6326 24.0757 35.6326C25.2423 35.6326 26.3853 35.3086 27.3257 34.619L27.3403 34.6092C29.5529 33.067 31.184 30.3565 31.5894 27.6541L31.6128 27.5477C31.6859 27.3064 31.8774 27.1155 32.1245 27.0447L33.1323 26.7557C33.5083 26.641 33.8256 26.2336 33.8257 25.7381V24.4344ZM35.3257 25.7381C35.3256 26.8341 34.6307 27.873 33.5601 28.1942L33.5503 28.1971L32.9878 28.3572C32.4141 31.2836 30.6313 34.1436 28.1978 35.8397L28.1968 35.8387C26.9678 36.7346 25.5102 37.1326 24.0757 37.1326C22.6222 37.1326 21.2425 36.726 19.9575 35.8426L19.9497 35.8367C17.45 34.0721 15.734 31.2136 15.1655 28.3582L14.6011 28.1971C14.5765 28.1901 14.5516 28.1822 14.5278 28.1727C13.5577 27.7846 12.8258 26.8808 12.8257 25.7381V24.4344C12.8257 23.1025 13.8108 22.0281 15.1021 21.8895C15.4755 17.2574 19.3468 13.619 24.0757 13.619C28.8045 13.619 32.6748 17.2574 33.0483 21.8895C34.3401 22.0276 35.3256 23.1022 35.3257 24.4344V25.7381Z" fill="black"/>
<path d="M21.9521 22.8904C22.2449 22.5976 22.7197 22.5977 23.0126 22.8904C23.3055 23.1833 23.3055 23.6581 23.0126 23.951C21.7783 25.1851 19.7107 25.1852 18.4765 23.951C18.1836 23.6581 18.1836 23.1833 18.4765 22.8904C18.7694 22.5975 19.2442 22.5975 19.5371 22.8904C20.1855 23.5389 21.3036 23.5388 21.9521 22.8904Z" fill="black"/>
<path d="M28.2521 22.8904C28.545 22.5976 29.0198 22.5977 29.3127 22.8904C29.6056 23.1833 29.6056 23.6581 29.3127 23.951C28.0784 25.1851 26.0108 25.1852 24.7766 23.951C24.4837 23.6581 24.4837 23.1833 24.7766 22.8904C25.0694 22.5975 25.5442 22.5975 25.8371 22.8904C26.4855 23.5389 27.6036 23.5388 28.2521 22.8904Z" fill="black"/>
<path d="M20.287 29.4797C22.3902 27.3767 25.8342 27.3766 27.9374 29.4797C28.2302 29.7725 28.23 30.2474 27.9374 30.5403C27.6445 30.8332 27.1697 30.8332 26.8768 30.5403C25.3594 29.023 22.865 29.023 21.3475 30.5403C21.0546 30.8332 20.5799 30.8332 20.287 30.5403C19.9942 30.2474 19.9941 29.7726 20.287 29.4797Z" fill="black"/>
<path d="M23.905 11.5449V8.15527L22.5437 8.87695C22.3114 8.99978 22.0316 8.99196 21.8064 8.85645C21.5811 8.72078 21.4431 8.47688 21.4431 8.21387V3C21.4431 2.58579 21.7789 2.25 22.1931 2.25C22.6073 2.25 22.9431 2.58579 22.9431 3V6.96777L24.3044 6.24707C24.5367 6.12423 24.8166 6.13215 25.0417 6.26758C25.267 6.40322 25.405 6.64719 25.405 6.91016V11.5449C25.405 11.9591 25.0692 12.2949 24.655 12.2949C24.2409 12.2948 23.9051 11.959 23.905 11.5449Z" fill="black"/>
<path d="M35.2814 6.08553C35.577 5.7956 36.0519 5.79989 36.3419 6.0953C36.6319 6.39095 36.6277 6.86579 36.3322 7.15584L33.4747 9.9576L34.9347 10.3912C35.1879 10.4666 35.3825 10.6702 35.4474 10.9264C35.5122 11.1824 35.4378 11.4534 35.2511 11.6402L31.9923 14.899C31.6994 15.1919 31.2247 15.1919 30.9318 14.899C30.639 14.6061 30.6389 14.1313 30.9318 13.8385L33.299 11.4703L31.8273 11.0328C31.5729 10.9571 31.3776 10.7523 31.3136 10.4947C31.2496 10.2369 31.3261 9.9639 31.5158 9.77791L35.2814 6.08553Z" fill="black"/>
<path d="M11.8096 6.09529C12.0997 5.79983 12.5746 5.79558 12.8702 6.08553L16.6358 9.77791C16.8254 9.96389 16.902 10.2369 16.838 10.4947C16.7739 10.7523 16.5787 10.9571 16.3243 11.0328L14.8516 11.4703L17.2198 13.8385C17.5127 14.1313 17.5126 14.6061 17.2198 14.899C16.9269 15.1919 16.4521 15.1919 16.1593 14.899L12.9005 11.6402C12.7139 11.4534 12.6394 11.1823 12.7042 10.9263C12.7691 10.6702 12.9637 10.4666 13.2169 10.3912L14.6759 9.9576L11.8194 7.15584C11.524 6.86578 11.5197 6.39092 11.8096 6.09529Z" fill="black"/>
</svg>
