<svg width="48" height="48" viewBox="0 0 48 48" fill="none" xmlns="http://www.w3.org/2000/svg">
<path d="M24.0002 15.9396C26.2296 15.9397 28.2355 16.8428 29.6965 18.3039C30.0478 18.6553 30.0479 19.2249 29.6965 19.5763L19.5764 29.6964C19.225 30.0478 18.6554 30.0477 18.304 29.6964C16.8429 28.2354 15.9397 26.2295 15.9397 24.0002C15.9397 19.5431 19.5432 15.9396 24.0002 15.9396ZM17.7405 24.0002C17.7405 25.4068 18.2005 26.6971 18.9846 27.7423L27.7424 18.9845C26.6972 18.2004 25.4069 17.7404 24.0002 17.7404C20.5373 17.7404 17.7405 20.5372 17.7405 24.0002Z" fill="black"/>
<path d="M24.0002 6.55961C28.3556 6.55968 32.5426 8.07628 36.1819 10.8213C36.5787 11.1206 36.6579 11.6852 36.3586 12.0821C36.0593 12.4789 35.4947 12.5581 35.0979 12.2588C31.7374 9.72405 27.9246 8.36046 24.0002 8.36039C17.3221 8.36039 10.9982 12.2933 6.53931 19.3028L6.53833 19.3038C5.75286 20.5343 5.33035 22.245 5.33032 24.0098C5.33032 25.6645 5.70199 27.2712 6.39575 28.4795L6.53833 28.7159L6.53931 28.7168C8.07569 31.1283 9.85871 33.1996 11.7864 34.8575C12.1632 35.1816 12.2062 35.7501 11.8821 36.127C11.5581 36.5035 10.9903 36.5464 10.6135 36.2227C8.54143 34.4407 6.64423 32.2319 5.02075 29.6836V29.6827C4.00685 28.0935 3.52954 26.0243 3.52954 24.0098C3.52957 21.9948 4.00726 19.9253 5.02173 18.336C9.72281 10.9463 16.5589 6.55961 24.0002 6.55961Z" fill="black"/>
<path d="M39.5364 15.1588C39.9236 14.8476 40.4895 14.9086 40.801 15.2955C41.5573 16.2358 42.2977 17.243 42.9788 18.3161L43.1624 18.6188C44.0509 20.1632 44.47 22.1006 44.47 23.9899C44.47 26.005 43.9933 28.0753 42.9788 29.6647C38.2777 37.0541 31.4415 41.44 24.0003 41.4401C21.4124 41.4401 18.8735 40.8927 16.4905 39.8893C16.0326 39.6963 15.8182 39.1686 16.011 38.7106C16.204 38.2527 16.7317 38.0373 17.1897 38.2301C19.3666 39.1467 21.6682 39.6403 24.0003 39.6403C30.6784 39.6402 37.0023 35.7065 41.4612 28.6969V28.6959C42.2467 27.4653 42.6702 25.7548 42.6702 23.9899C42.6702 22.225 42.2467 20.5144 41.4612 19.2838L41.4602 19.2819C40.8217 18.2757 40.1219 17.3236 39.3987 16.4245C39.0872 16.0371 39.1491 15.4704 39.5364 15.1588Z" fill="black"/>
<path d="M30.1349 25.2369C30.225 24.7482 30.6941 24.4254 31.1827 24.5152C31.6715 24.6054 31.9954 25.0743 31.9054 25.5631C31.3177 28.7501 28.7301 31.3377 25.5431 31.9254C25.0543 32.0154 24.5854 31.6915 24.4952 31.2027C24.4054 30.7141 24.7282 30.245 25.2169 30.1549C27.6698 29.7025 29.6825 27.6898 30.1349 25.2369Z" fill="black"/>
<path d="M18.3036 28.4233C18.655 28.0721 19.2247 28.0722 19.5761 28.4233C19.9276 28.7748 19.9276 29.3452 19.5761 29.6967L4.63665 44.6362C4.28518 44.9876 3.71469 44.9876 3.36321 44.6362C3.01209 44.2847 3.01205 43.7151 3.36321 43.3637L18.3036 28.4233Z" fill="black"/>
<path d="M43.3637 3.36328C43.7151 3.01211 44.2847 3.01215 44.6362 3.36328C44.9876 3.71475 44.9876 4.28525 44.6362 4.63672L29.6967 19.5762C29.3452 19.9276 28.7747 19.9276 28.4233 19.5762C28.0721 19.2247 28.0721 18.6551 28.4233 18.3037L43.3637 3.36328Z" fill="black"/>
</svg>
