<svg width="48" height="48" viewBox="0 0 48 48" fill="none" xmlns="http://www.w3.org/2000/svg">
<path d="M44.9156 39.9724L43.2507 34.1848C43.2111 34.0659 43.1318 33.947 43.0525 33.8677C42.0218 30.736 39.4848 28.3179 36.2739 27.4855L35.7982 27.4062C35.0846 27.208 34.2918 27.4458 33.7765 28.0404C32.0323 30.0225 29.8124 30.1811 27.4736 30.1811C25.1347 30.1811 22.9148 30.0225 21.1706 28.0404C20.6553 27.4458 19.8625 27.208 19.1489 27.4062L18.6732 27.5251C16.2551 28.1594 14.1938 29.7054 12.8856 31.7667H7.89085C7.85121 31.7667 7.85121 31.7667 7.81157 31.7271C7.81157 31.6874 7.77193 31.6478 7.77193 31.5685L8.8026 27.8819C9.71434 24.9881 11.4585 24.116 14.8677 23.2439C15.0262 23.2042 15.1452 23.125 15.2245 23.0457C15.5019 23.2835 15.8191 23.4817 16.1362 23.6403C16.2551 23.7196 16.374 23.7196 16.493 23.7196C16.7705 23.7196 17.0479 23.561 17.2065 23.2835C17.4047 22.8871 17.2461 22.4114 16.8497 22.2132C15.0262 21.2618 13.7181 18.5662 13.7181 15.7913C13.7181 13.3336 15.7398 11.3119 18.1975 11.3119C18.6732 11.3119 19.1093 11.3912 19.5453 11.5101C19.1093 12.5804 18.8714 13.73 18.8714 14.9589C18.8714 21.7375 22.9545 27.4458 27.7907 27.4458C32.5476 27.4458 36.7496 21.6186 36.7496 14.9589C36.7496 10.0038 32.7458 6 27.7907 6C24.659 6 21.8842 7.62529 20.2985 10.083C19.6246 9.84519 18.9111 9.72626 18.1975 9.72626C16.0569 9.72626 14.1541 10.8759 13.0838 12.5804C13.0046 12.5011 12.9253 12.4615 12.846 12.4219C12.2514 12.1047 11.6568 11.9858 10.9829 11.9858C8.76296 11.9462 6.97911 13.73 6.97911 15.9499C6.97911 17.2184 7.33588 18.4077 7.89085 19.359C6.06736 19.8347 4.44208 20.5483 3.68889 22.9664L3.05464 25.2656C2.93571 25.662 3.015 26.098 3.25284 26.4152C3.49069 26.7719 3.92674 26.9701 4.36279 26.9701H7.41516C7.37552 27.1287 7.29623 27.2873 7.25659 27.4458L6.22592 31.1721C6.06736 31.6874 6.18628 32.2424 6.54305 32.6785C6.86018 33.1145 7.33588 33.3524 7.89085 33.3524H12.0928C11.9739 33.6298 11.8946 33.9073 11.8153 34.1848L10.1504 40.0121C9.99183 40.686 10.1108 41.3995 10.5468 41.9545C10.9829 42.5094 11.6171 42.8266 12.291 42.8266H36.0757H37.4235H42.775C43.4489 42.8266 44.1228 42.5094 44.5192 41.9545C44.9553 41.3995 45.1138 40.686 44.9156 39.9724ZM21.2499 11.629C21.2895 11.5894 21.3292 11.5498 21.3688 11.4705C21.4085 11.4308 21.4085 11.3515 21.4481 11.3119C22.677 9.09201 25.0554 7.58564 27.7907 7.58564C31.0809 7.58564 33.8558 9.7659 34.8072 12.739C33.4197 13.0165 31.953 12.4615 31.0809 11.2723C30.8034 10.9155 30.3277 10.8362 29.9709 11.1137C29.8124 11.2326 29.7331 11.3515 29.6935 11.5101C29.6538 11.5498 29.6538 11.5894 29.6142 11.629C28.5042 13.8886 24.778 14.84 20.5364 14.0075C20.6553 13.175 20.8931 12.3822 21.2499 11.629ZM23.4698 15.8706C26.6411 15.8706 29.2574 14.8796 30.6052 13.0165C31.5962 13.8886 32.8251 14.3643 34.1333 14.3643C34.4504 14.3643 34.8072 14.3246 35.1243 14.2453C35.1639 14.4832 35.1639 14.6814 35.1639 14.9192C35.1639 20.7465 31.7151 25.8602 27.7907 25.8602C24.0248 25.8602 20.7346 21.1429 20.4571 15.5931C21.4877 15.7913 22.5184 15.8706 23.4698 15.8706ZM4.67992 25.3845L5.2349 23.4024C5.71059 21.7772 6.70162 21.3015 8.68367 20.8258C8.8026 20.7861 8.92152 20.7465 9.0008 20.6672C9.19901 20.8258 9.35757 20.9447 9.59542 21.0636C9.71434 21.1429 9.83326 21.1429 9.95219 21.1429C10.2297 21.1429 10.5072 20.9843 10.6657 20.7068C10.8639 20.3104 10.7054 19.8347 10.3486 19.6365C9.31793 19.0816 8.56475 17.5356 8.56475 15.9499C8.56475 14.6021 9.63506 13.5318 10.9829 13.5318C11.4189 13.5318 11.7757 13.6111 12.1324 13.8093C12.2514 13.8489 12.3307 13.8886 12.4496 13.8886C12.2514 14.4832 12.1324 15.1175 12.1324 15.7913C12.1324 18.0509 12.8856 20.2708 14.0749 21.8168C11.6964 22.4114 9.59542 23.2042 8.20798 25.3845H4.67992ZM43.2903 41.0031C43.2111 41.0824 43.0525 41.2409 42.775 41.2409H37.4235H36.0757H12.291C12.0135 41.2409 11.855 41.0824 11.7757 41.0031C11.6568 40.8445 11.6171 40.6067 11.6568 40.4481L13.3217 34.6605C14.1145 31.9253 16.2948 29.7847 19.0696 29.0711L19.5453 28.9522C19.6643 28.9125 19.8625 28.9918 19.9814 29.1108C22.1616 31.6081 24.8572 31.8063 27.4736 31.8063C30.0899 31.8063 32.7855 31.6081 34.9657 29.1108C35.0846 28.9918 35.2432 28.9125 35.4414 28.9522L35.9171 29.0711C38.6523 29.7847 40.8722 31.9253 41.6651 34.6605L42.3786 37.1183C42.4182 37.2372 42.4579 37.3165 42.5372 37.3957L43.4093 40.4085C43.4489 40.6067 43.4093 40.8445 43.2903 41.0031Z" fill="black"/>
</svg>
