<svg width="48" height="48" viewBox="0 0 48 48" fill="none" xmlns="http://www.w3.org/2000/svg">
<path d="M35.8998 29.1226C35.8282 29.1226 35.7553 29.1117 35.6831 29.0881C35.2068 28.9327 34.7485 28.7934 34.3074 28.6668C33.9361 28.5601 33.7206 28.1727 33.8274 27.8013C33.9341 27.4293 34.3247 27.2165 34.6929 27.3213C35.1493 27.4523 35.6223 27.5968 36.1165 27.7572C36.484 27.8768 36.6854 28.2718 36.5652 28.6393C36.4693 28.9353 36.1951 29.1226 35.8998 29.1226Z" fill="black"/>
<path d="M27.8021 11.9489C25.9746 11.9489 24.2902 11.715 22.3687 11.4484C21.3255 11.3033 20.2477 11.1544 19.0261 11.0247C18.6413 10.9844 18.3633 10.6392 18.4035 10.255C18.4438 9.87088 18.7832 9.58962 19.1732 9.63245C20.4165 9.76413 21.5064 9.91498 22.5604 10.0614C26.7097 10.6373 29.7077 11.0534 35.6832 9.11213C36.0495 8.9926 36.4451 9.19331 36.5653 9.5615C36.6849 9.92904 36.4829 10.3241 36.1153 10.4436C32.6187 11.5795 30.097 11.9483 27.8015 11.9483L27.8021 11.9489Z" fill="black"/>
<path d="M12.7994 28.9002C7.39598 28.9002 3 24.5043 3 19.1004C3 13.6965 7.39598 9.30069 12.7994 9.30069C13.7608 9.30069 14.7139 9.32178 15.6318 9.36397C16.0179 9.38123 16.3164 9.70914 16.2992 10.0952C16.2819 10.4813 15.9502 10.7926 15.5679 10.7626C14.6711 10.7217 13.7397 10.7012 12.7994 10.7012C8.16817 10.7012 4.39927 14.4693 4.39927 19.1011C4.39927 23.7328 8.16817 27.5009 12.7994 27.5009C14.7011 27.5009 16.5114 27.4178 18.3338 27.2459C18.7225 27.2101 19.0606 27.4926 19.0958 27.8774C19.1322 28.2622 18.8497 28.6036 18.4649 28.64C16.5983 28.8158 14.7452 28.9014 12.7994 28.9014V28.9002Z" fill="black"/>
<path d="M26.1006 44.9999C26.0457 44.9999 25.9894 44.9935 25.9338 44.9801C23.0969 44.2872 22.2013 41.8173 22.5702 39.8159C22.9575 37.7123 24.8081 35.7646 27.5849 36.1143C29.3837 36.3406 31.8761 36.6001 35.2001 36.6001C39.8025 36.6001 43.5714 32.8562 43.6002 28.2539C43.6136 26.0333 42.743 23.9277 41.1468 22.324C39.527 20.6965 37.3849 19.8004 35.1144 19.8004H35.1016C34.1926 19.8016 33.2945 19.8227 32.4316 19.8617C32.0563 19.8866 31.7182 19.5805 31.7003 19.195C31.683 18.8089 31.9809 18.481 32.3676 18.4638C33.2504 18.4235 34.169 18.4018 35.0984 18.4005H35.1131C37.7595 18.4005 40.2532 19.443 42.1376 21.3364C43.9984 23.2067 45.0148 25.6664 44.9982 28.2622C44.9649 33.6316 40.5683 37.9999 35.1988 37.9999C31.7968 37.9999 29.2482 37.734 27.4085 37.5026C25.4013 37.2482 24.2053 38.6558 23.9451 40.0691C23.6837 41.4907 24.2986 43.1398 26.2643 43.6192C26.6401 43.7113 26.8696 44.0897 26.7782 44.4656C26.7002 44.7852 26.4145 44.9993 26.0994 44.9993L26.1006 44.9999Z" fill="black"/>
<path d="M17.7004 20.8915C17.6722 20.8915 17.6435 20.8896 17.6141 20.8864C16.0748 20.6978 14.432 20.3316 12.5942 19.7684C12.2241 19.6553 12.0163 19.2634 12.1295 18.894C12.2426 18.5251 12.6332 18.3161 13.0033 18.4299C14.7625 18.9688 16.326 19.3178 17.7841 19.4961C18.1676 19.5434 18.44 19.8924 18.3933 20.2759C18.3498 20.6307 18.0481 20.8909 17.6991 20.8909L17.7004 20.8915Z" fill="black"/>
<path d="M35.2 19.8004C34.8139 19.8004 34.5 19.4871 34.5 19.1004C34.5 18.7137 34.8132 18.4005 35.2 18.4005C39.8318 18.4005 43.6007 14.6323 43.6007 10.0006C43.6007 7.8222 42.7697 5.75691 41.2618 4.18509C40.9939 3.90576 41.0035 3.46342 41.2822 3.1956C41.5609 2.92777 42.0039 2.93672 42.2718 3.21605C44.0316 5.0493 45.0006 7.45913 45.0006 10.0006C45.0006 15.4045 40.604 19.8004 35.2 19.8004Z" fill="black"/>
<path d="M12.7993 10.7006C8.53184 10.7006 4.7834 7.97433 3.47234 3.91599C3.35408 3.54844 3.55544 3.15341 3.92299 3.03452C4.29247 2.91435 4.68559 3.11762 4.80449 3.4858C5.92826 6.96374 9.14102 9.3007 12.7993 9.3007C13.1854 9.3007 13.4993 9.61391 13.4993 10.0006C13.4993 10.3874 13.1861 10.7006 12.7993 10.7006Z" fill="black"/>
<path d="M17.0003 45C16.7906 45 16.5835 44.906 16.4455 44.727C12.5558 39.6785 11.703 33.7217 14.3226 29.9044C14.9957 28.9225 15.9008 28.0897 17.0137 27.4281C17.3461 27.2306 17.7751 27.3399 17.9732 27.6722C18.1707 28.0046 18.0614 28.4342 17.729 28.6317C16.7919 29.1885 16.0344 29.8833 15.4777 30.6957C13.202 34.0119 14.0368 39.3072 17.5545 43.8724C17.7904 44.1786 17.7335 44.6183 17.4273 44.8542C17.3001 44.952 17.1493 45 17.0003 45Z" fill="black"/>
<path d="M23.3007 33.8004C23.0604 33.8004 22.8258 33.6764 22.696 33.4533C20.2676 29.2978 19.2684 24.5504 19.8041 19.7237C19.8469 19.3395 20.1902 19.0621 20.5776 19.1056C20.9618 19.1484 21.2385 19.4942 21.1957 19.8784C20.6933 24.404 21.6304 28.8535 23.9048 32.7476C24.1004 33.0812 23.9872 33.5102 23.6536 33.7051C23.5423 33.7703 23.4209 33.8004 23.3007 33.8004Z" fill="black"/>
<path d="M32.4039 30.3007C32.2013 30.3007 31.9999 30.2131 31.8618 30.0444C31.2948 29.3527 30.7981 28.6081 30.3846 27.8295C28.6484 24.5644 28.6216 21.2328 28.9054 19.0129C28.954 18.6293 29.3036 18.3596 29.6884 18.4069C30.072 18.4561 30.343 18.8064 30.2938 19.1899C30.0368 21.2086 30.0573 24.232 31.6208 27.1724C31.9916 27.8698 32.4365 28.5377 32.944 29.1571C33.1895 29.4563 33.1454 29.8973 32.8469 30.1422C32.7165 30.2489 32.5599 30.3007 32.4039 30.3007Z" fill="black"/>
<path d="M25.7867 31.0006C25.5553 31.0006 25.3277 30.8856 25.1947 30.6753C24.7511 29.9753 24.3669 29.2326 24.0524 28.4661C23.7597 27.7547 23.5225 27.0113 23.3486 26.257C23.2617 25.8805 23.4969 25.5047 23.8734 25.4178C24.2531 25.3321 24.6258 25.5667 24.7127 25.9432C24.8687 26.6227 25.0822 27.2926 25.3462 27.9337C25.63 28.6247 25.9765 29.2946 26.376 29.9261C26.5831 30.2527 26.486 30.6855 26.1593 30.8919C26.043 30.9655 25.9132 31.0006 25.7854 31.0006H25.7867Z" fill="black"/>
<path d="M23.6778 23.3007C23.6727 23.3007 23.6676 23.3007 23.6624 23.3007C23.2763 23.2924 22.9695 22.9721 22.9785 22.5854C22.9893 22.0938 23.0226 21.601 23.0782 21.1203C23.1223 20.7362 23.4681 20.4607 23.8542 20.5054C24.2384 20.5495 24.5133 20.8972 24.4691 21.2808C24.4186 21.7186 24.388 22.1674 24.3777 22.6161C24.3694 22.997 24.0575 23.3007 23.6778 23.3007Z" fill="black"/>
<path d="M29.6002 31.7005C29.3784 31.7005 29.1604 31.5957 29.0256 31.4001C28.7686 31.0307 28.5231 30.6465 28.2956 30.2578C28.1 29.9242 28.2125 29.4953 28.5468 29.3003C28.8805 29.1047 29.3094 29.2185 29.5043 29.5515C29.7127 29.9082 29.9384 30.261 30.1743 30.6005C30.3954 30.9182 30.3174 31.3541 29.9997 31.5746C29.8783 31.6596 29.7389 31.6999 29.6009 31.6999L29.6002 31.7005Z" fill="black"/>
<path d="M27.4998 27.5003C27.2057 27.5003 26.9315 27.3136 26.835 27.0189C26.2181 25.1454 25.9369 23.1805 25.9976 21.1785C26.0104 20.7924 26.3651 20.4894 26.7186 20.5003C27.1047 20.5124 27.409 20.8352 27.3975 21.2213C27.3413 23.059 27.5989 24.8629 28.1646 26.5811C28.2854 26.948 28.086 27.3437 27.719 27.4645C27.6462 27.4888 27.5727 27.5003 27.4998 27.5003Z" fill="black"/>
</svg>
