<svg width="48" height="48" viewBox="0 0 48 48" fill="none" xmlns="http://www.w3.org/2000/svg">
<path d="M37.9188 7.963C37.77 7.963 37.6142 7.963 37.4583 7.963H33.8104V7.9C33.8104 7.34305 33.5865 6.8089 33.188 6.41508C32.7895 6.02125 32.249 5.8 31.6854 5.8H29.4683V5.1C29.4683 4.54305 29.2444 4.0089 28.8459 3.61508C28.4474 3.22125 27.9069 3 27.3433 3H20.6567C20.0931 3 19.5526 3.22125 19.1541 3.61508C18.7555 4.0089 18.5317 4.54305 18.5317 5.1V5.8H16.3217C15.7581 5.8 15.2176 6.02125 14.8191 6.41508C14.4205 6.8089 14.1967 7.34305 14.1967 7.9V7.963H10.5417C9.60236 7.963 8.70152 8.33175 8.03733 8.98813C7.37314 9.6445 7 10.5347 7 11.463V41.5C7 42.4283 7.37314 43.3185 8.03733 43.9749C8.70152 44.6313 9.60236 45 10.5417 45H37.4583C38.3976 45 39.2985 44.6313 39.9627 43.9749C40.6269 43.3185 41 42.4283 41 41.5V21.116L40.8654 11.4C40.8623 10.576 40.565 9.77947 40.026 9.15075C39.487 8.52204 38.7407 8.10143 37.9188 7.963ZM19.9483 5.1C19.9483 4.91435 20.023 4.7363 20.1558 4.60503C20.2886 4.47375 20.4688 4.4 20.6567 4.4H27.3433C27.5312 4.4 27.7114 4.47375 27.8442 4.60503C27.977 4.7363 28.0517 4.91435 28.0517 5.1V5.8H19.9483V5.1ZM15.6133 8.656V7.9C15.6133 7.71435 15.688 7.5363 15.8208 7.40503C15.9536 7.27375 16.1338 7.2 16.3217 7.2H31.6854C31.8733 7.2 32.0534 7.27375 32.1863 7.40503C32.3191 7.5363 32.3937 7.71435 32.3937 7.9V10.56C32.3937 10.7457 32.3191 10.9237 32.1863 11.055C32.0534 11.1863 31.8733 11.26 31.6854 11.26H16.3217C16.1338 11.26 15.9536 11.1863 15.8208 11.055C15.688 10.9237 15.6133 10.7457 15.6133 10.56V8.656ZM39.5833 41.5C39.5833 42.057 39.3594 42.5911 38.9609 42.9849C38.5624 43.3787 38.0219 43.6 37.4583 43.6H10.5417C9.97808 43.6 9.43758 43.3787 9.03906 42.9849C8.64055 42.5911 8.41667 42.057 8.41667 41.5V11.435C8.41667 10.878 8.64055 10.3439 9.03906 9.95008C9.43758 9.55625 9.97808 9.335 10.5417 9.335H14.1967V10.56C14.1967 11.117 14.4205 11.6511 14.8191 12.0449C15.2176 12.4388 15.7581 12.66 16.3217 12.66H31.6854C32.249 12.66 32.7895 12.4388 33.188 12.0449C33.5865 11.6511 33.8104 11.117 33.8104 10.56V9.335H37.4583H37.7346C38.229 9.42097 38.6751 9.68112 38.9903 10.0672C39.3055 10.4534 39.4683 10.9393 39.4488 11.435L39.5833 21.123V41.5ZM17.4904 9.335C17.4904 9.14935 17.565 8.9713 17.6979 8.84003C17.8307 8.70875 18.0109 8.635 18.1987 8.635H18.9567C19.1445 8.635 19.3247 8.70875 19.4575 8.84003C19.5904 8.9713 19.665 9.14935 19.665 9.335C19.665 9.52065 19.5904 9.6987 19.4575 9.82997C19.3247 9.96125 19.1445 10.035 18.9567 10.035H18.1987C18.0109 10.035 17.8307 9.96125 17.6979 9.82997C17.565 9.6987 17.4904 9.52065 17.4904 9.335ZM28.8238 9.335C28.8238 9.14935 28.8984 8.9713 29.0312 8.84003C29.1641 8.70875 29.3442 8.635 29.5321 8.635H30.29C30.4779 8.635 30.658 8.70875 30.7909 8.84003C30.9237 8.9713 30.9983 9.14935 30.9983 9.335C30.9983 9.52065 30.9237 9.6987 30.7909 9.82997C30.658 9.96125 30.4779 10.035 30.29 10.035H29.5321C29.3442 10.035 29.1641 9.96125 29.0312 9.82997C28.8984 9.6987 28.8238 9.52065 28.8238 9.335ZM17.625 26.709C16.1383 26.709 14.685 27.1448 13.4489 27.9612C12.2129 28.7776 11.2496 29.9379 10.681 31.2954C10.1124 32.6529 9.96395 34.1466 10.2545 35.5875C10.5451 37.0284 11.2615 38.3518 12.3133 39.3902C13.3651 40.4286 14.7048 41.1354 16.1632 41.4211C17.6215 41.7069 19.1328 41.5588 20.5059 40.9956C21.8791 40.4324 23.0523 39.4794 23.8773 38.2571C24.7022 37.0348 25.1418 35.5982 25.1404 34.129C25.1367 32.161 24.3434 30.2748 22.9346 28.8839C21.5258 27.493 19.6164 26.7108 17.625 26.709ZM17.625 40.156C16.4188 40.156 15.2396 39.8025 14.2367 39.1403C13.2338 38.478 12.4521 37.5367 11.9905 36.4354C11.5289 35.3341 11.4081 34.1223 11.6434 32.9532C11.8788 31.7841 12.4596 30.7102 13.3125 29.8673C14.1655 29.0244 15.2522 28.4504 16.4352 28.2178C17.6182 27.9853 18.8445 28.1046 19.9589 28.5608C21.0733 29.0169 22.0258 29.7894 22.6959 30.7806C23.3661 31.7717 23.7237 32.937 23.7237 34.129C23.7219 35.7269 23.0787 37.2588 21.9354 38.3887C20.7921 39.5186 19.2419 40.1541 17.625 40.156ZM20.6567 32.162H19.5942V31.105C19.5849 30.7398 19.4316 30.3926 19.1669 30.1376C18.9022 29.8826 18.5472 29.7399 18.1775 29.74H17.0867C16.7232 29.7489 16.377 29.8955 16.1199 30.1496C15.8628 30.4037 15.7144 30.7458 15.7054 31.105V32.162H14.6358C14.2601 32.162 13.8998 32.3095 13.6341 32.572C13.3684 32.8346 13.2192 33.1907 13.2192 33.562V34.661C13.2192 35.0323 13.3684 35.3884 13.6341 35.6509C13.8998 35.9135 14.2601 36.061 14.6358 36.061H15.7054V37.146C15.7053 37.5113 15.8497 37.8622 16.1077 38.1238C16.3658 38.3853 16.7171 38.5369 17.0867 38.546H18.2058C18.5816 38.546 18.9419 38.3985 19.2076 38.1359C19.4732 37.8734 19.6225 37.5173 19.6225 37.146L19.5871 36.089H20.685C21.0607 36.089 21.4211 35.9415 21.6867 35.6789C21.9524 35.4164 22.1017 35.0603 22.1017 34.689V33.534C22.098 33.3501 22.0577 33.1688 21.9831 33.0003C21.9084 32.8319 21.801 32.6796 21.6668 32.5522C21.5326 32.4248 21.3743 32.3247 21.201 32.2578C21.0277 32.1908 20.8427 32.1583 20.6567 32.162ZM19.5587 34.605C19.1892 34.6141 18.8379 34.7657 18.5798 35.0272C18.3218 35.2888 18.1774 35.6397 18.1775 36.005V37.055H17.0937V35.977C17.0937 35.6057 16.9445 35.2496 16.6788 34.987C16.4131 34.7245 16.0528 34.577 15.6771 34.577H14.6075V33.506H15.7054C16.0811 33.506 16.4415 33.3585 16.7072 33.0959C16.9728 32.8334 17.1221 32.4773 17.1221 32.106L17.0867 31.056L18.1775 31.021V32.19C18.1774 32.5553 18.3218 32.9062 18.5798 33.1678C18.8379 33.4293 19.1892 33.5809 19.5587 33.59H20.6283V34.633L19.5587 34.605ZM36.9483 15.761C36.9483 15.9467 36.8737 16.1247 36.7409 16.256C36.608 16.3873 36.4279 16.461 36.24 16.461H11.76C11.5721 16.461 11.392 16.3873 11.2591 16.256C11.1263 16.1247 11.0517 15.9467 11.0517 15.761C11.0517 15.5753 11.1263 15.3973 11.2591 15.266C11.392 15.1348 11.5721 15.061 11.76 15.061H36.24C36.4279 15.061 36.608 15.1348 36.7409 15.266C36.8737 15.3973 36.9483 15.5753 36.9483 15.761ZM36.9483 19.422C36.9483 19.6077 36.8737 19.7857 36.7409 19.917C36.608 20.0482 36.4279 20.122 36.24 20.122H11.76C11.5721 20.122 11.392 20.0482 11.2591 19.917C11.1263 19.7857 11.0517 19.6077 11.0517 19.422C11.0517 19.2363 11.1263 19.0583 11.2591 18.927C11.392 18.7957 11.5721 18.722 11.76 18.722H36.24C36.4279 18.722 36.608 18.7957 36.7409 18.927C36.8737 19.0583 36.9483 19.2363 36.9483 19.422ZM36.9483 23.076C36.9483 23.2617 36.8737 23.4397 36.7409 23.571C36.608 23.7022 36.4279 23.776 36.24 23.776H11.76C11.5721 23.776 11.392 23.7022 11.2591 23.571C11.1263 23.4397 11.0517 23.2617 11.0517 23.076C11.0517 22.8903 11.1263 22.7123 11.2591 22.581C11.392 22.4497 11.5721 22.376 11.76 22.376H36.24C36.4279 22.376 36.608 22.4497 36.7409 22.581C36.8737 22.7123 36.9483 22.8903 36.9483 23.076ZM36.9483 29.656C36.9483 29.8417 36.8737 30.0197 36.7409 30.151C36.608 30.2822 36.4279 30.356 36.24 30.356H28.3421C28.1542 30.356 27.9741 30.2822 27.8412 30.151C27.7084 30.0197 27.6338 29.8417 27.6338 29.656C27.6338 29.4703 27.7084 29.2923 27.8412 29.161C27.9741 29.0298 28.1542 28.956 28.3421 28.956H36.24C36.4279 28.956 36.608 29.0298 36.7409 29.161C36.8737 29.2923 36.9483 29.4703 36.9483 29.656ZM36.9483 34.122C36.9483 34.3077 36.8737 34.4857 36.7409 34.617C36.608 34.7482 36.4279 34.822 36.24 34.822H28.3421C28.1542 34.822 27.9741 34.7482 27.8412 34.617C27.7084 34.4857 27.6338 34.3077 27.6338 34.122C27.6338 33.9363 27.7084 33.7583 27.8412 33.627C27.9741 33.4957 28.1542 33.422 28.3421 33.422H36.24C36.4279 33.422 36.608 33.4957 36.7409 33.627C36.8737 33.7583 36.9483 33.9363 36.9483 34.122ZM36.9483 38.581C36.9483 38.7667 36.8737 38.9447 36.7409 39.076C36.608 39.2072 36.4279 39.281 36.24 39.281H28.3421C28.1542 39.281 27.9741 39.2072 27.8412 39.076C27.7084 38.9447 27.6338 38.7667 27.6338 38.581C27.6338 38.3953 27.7084 38.2173 27.8412 38.086C27.9741 37.9547 28.1542 37.881 28.3421 37.881H36.24C36.4279 37.881 36.608 37.9547 36.7409 38.086C36.8737 38.2173 36.9483 38.3953 36.9483 38.581Z" fill="black"/>
</svg>
