<svg width="48" height="48" viewBox="0 0 48 48" fill="none" xmlns="http://www.w3.org/2000/svg">
<path d="M32.3766 11.911V5.8C32.3766 5.05739 32.0771 4.3452 31.5442 3.8201C31.0112 3.295 30.2884 3 29.5346 3H18.4654C17.7116 3 16.9888 3.295 16.4558 3.8201C15.9229 4.3452 15.6234 5.05739 15.6234 5.8V11.911C14.5813 12.2006 13.6635 12.8173 13.0096 13.6676C12.3556 14.5179 12.0011 15.5552 12 16.622V40.1C12 41.3996 12.524 42.6459 13.4567 43.5648C14.3893 44.4838 15.6543 45 16.9734 45H31.0266C32.3457 45 33.6107 44.4838 34.5433 43.5648C35.476 42.6459 36 41.3996 36 40.1V16.622C35.9989 15.5552 35.6444 14.5179 34.9904 13.6676C34.3365 12.8173 33.4187 12.2006 32.3766 11.911ZM17.0444 5.8C17.0444 5.4287 17.1941 5.0726 17.4606 4.81005C17.7271 4.5475 18.0885 4.4 18.4654 4.4H29.5346C29.9115 4.4 30.2729 4.5475 30.5394 4.81005C30.8059 5.0726 30.9556 5.4287 30.9556 5.8V11.722H29.1226V7.081C29.1226 6.89535 29.0477 6.7173 28.9145 6.58603C28.7812 6.45475 28.6005 6.381 28.4121 6.381C28.2236 6.381 28.0429 6.45475 27.9097 6.58603C27.7765 6.7173 27.7016 6.89535 27.7016 7.081V11.722H26.1314V7.081C26.1314 6.89535 26.0566 6.7173 25.9233 6.58603C25.7901 6.45475 25.6094 6.381 25.421 6.381C25.2325 6.381 25.0518 6.45475 24.9186 6.58603C24.7853 6.7173 24.7105 6.89535 24.7105 7.081V11.722H23.0693V7.081C23.0693 6.89535 22.9944 6.7173 22.8612 6.58603C22.7279 6.45475 22.5472 6.381 22.3588 6.381C22.1704 6.381 21.9896 6.45475 21.8564 6.58603C21.7232 6.7173 21.6483 6.89535 21.6483 7.081V11.722H20.0426V7.081C20.0426 6.89535 19.9678 6.7173 19.8345 6.58603C19.7013 6.45475 19.5206 6.381 19.3322 6.381C19.1437 6.381 18.963 6.45475 18.8298 6.58603C18.6965 6.7173 18.6217 6.89535 18.6217 7.081V11.722H17.0444V5.8ZM34.579 40.1C34.579 41.0283 34.2048 41.9185 33.5386 42.5749C32.8724 43.2313 31.9688 43.6 31.0266 43.6H16.9734C16.0312 43.6 15.1276 43.2313 14.4614 42.5749C13.7952 41.9185 13.421 41.0283 13.421 40.1V16.622C13.421 15.6937 13.7952 14.8035 14.4614 14.1471C15.1276 13.4907 16.0312 13.122 16.9734 13.122H31.0266C31.9688 13.122 32.8724 13.4907 33.5386 14.1471C34.2048 14.8035 34.579 15.6937 34.579 16.622V40.1ZM29.3641 16.349H18.6359C17.8822 16.349 17.1593 16.644 16.6263 17.1691C16.0934 17.6942 15.794 18.4064 15.794 19.149V31.973C15.794 32.7156 16.0934 33.4278 16.6263 33.9529C17.1593 34.478 17.8822 34.773 18.6359 34.773H29.3641C30.1178 34.773 30.8407 34.478 31.3737 33.9529C31.9066 33.4278 32.206 32.7156 32.206 31.973V19.149C32.206 18.4064 31.9066 17.6942 31.3737 17.1691C30.8407 16.644 30.1178 16.349 29.3641 16.349ZM30.7851 31.973C30.7851 32.3443 30.6354 32.7004 30.3689 32.9629C30.1024 33.2255 29.741 33.373 29.3641 33.373H18.6359C18.259 33.373 17.8976 33.2255 17.6311 32.9629C17.3646 32.7004 17.2149 32.3443 17.2149 31.973V19.149C17.2149 18.7777 17.3646 18.4216 17.6311 18.1591C17.8976 17.8965 18.259 17.749 18.6359 17.749H29.3641C29.741 17.749 30.1024 17.8965 30.3689 18.1591C30.6354 18.4216 30.7851 18.7777 30.7851 19.149V31.973ZM27.7869 23.335H26.4085C26.3708 23.335 26.3347 23.3202 26.308 23.294C26.2814 23.2677 26.2664 23.2321 26.2664 23.195V21.837C26.2646 21.4291 26.0993 21.0385 25.8066 20.7501C25.5138 20.4617 25.1173 20.2988 24.7034 20.297H23.2895C22.875 20.297 22.4774 20.4592 22.1843 20.7481C21.8911 21.0369 21.7265 21.4286 21.7265 21.837V23.195C21.7265 23.2321 21.7115 23.2677 21.6848 23.294C21.6582 23.3202 21.6221 23.335 21.5844 23.335H20.2202C19.8057 23.335 19.4081 23.4972 19.115 23.7861C18.8219 24.0749 18.6572 24.4666 18.6572 24.875V26.275C18.6591 26.6829 18.8243 27.0735 19.1171 27.3619C19.4098 27.6503 19.8063 27.8132 20.2202 27.815H21.5986C21.6172 27.815 21.6357 27.8186 21.653 27.8257C21.6702 27.8327 21.6859 27.843 21.6991 27.856C21.7123 27.869 21.7227 27.8844 21.7299 27.9014C21.737 27.9184 21.7407 27.9366 21.7407 27.955V29.313C21.7463 29.7147 21.9117 30.0982 22.2013 30.381C22.491 30.6638 22.8818 30.8232 23.2895 30.825H24.7105C25.1238 30.825 25.5203 30.6637 25.8132 30.3764C26.1061 30.0891 26.2717 29.6992 26.2735 29.292V27.934C26.2735 27.9156 26.2772 27.8974 26.2844 27.8804C26.2915 27.8634 26.302 27.848 26.3152 27.835C26.3283 27.822 26.344 27.8117 26.3613 27.8047C26.3785 27.7976 26.397 27.794 26.4156 27.794H27.794C28.2079 27.7922 28.6044 27.6293 28.8971 27.3409C29.1899 27.0525 29.3551 26.6619 29.357 26.254V24.854C29.3514 24.448 29.1833 24.0606 28.8892 23.7761C28.5952 23.4917 28.199 23.3331 27.7869 23.335ZM27.929 26.254C27.929 26.2724 27.9253 26.2906 27.9181 26.3076C27.911 26.3246 27.9005 26.34 27.8873 26.353C27.8741 26.366 27.8585 26.3763 27.8412 26.3833C27.824 26.3904 27.8055 26.394 27.7869 26.394H26.4085C26.203 26.3931 25.9993 26.4323 25.8093 26.5093C25.6192 26.5864 25.4465 26.6998 25.3012 26.843C25.1559 26.9862 25.0408 27.1563 24.9625 27.3436C24.8843 27.5308 24.8445 27.7315 24.8455 27.934V29.292C24.8455 29.3101 24.8418 29.328 24.8346 29.3446C24.8273 29.3612 24.8168 29.3762 24.8035 29.3886C24.7902 29.4011 24.7744 29.4107 24.7572 29.417C24.74 29.4232 24.7217 29.426 24.7034 29.425H23.2895C23.2712 29.426 23.2529 29.4232 23.2357 29.417C23.2185 29.4107 23.2027 29.4011 23.1894 29.3886C23.1761 29.3762 23.1656 29.3612 23.1583 29.3446C23.1511 29.328 23.1474 29.3101 23.1474 29.292V27.934C23.1474 27.5256 22.9827 27.1339 22.6896 26.8451C22.3965 26.5562 21.9989 26.394 21.5844 26.394H20.2202C20.1826 26.394 20.1464 26.3792 20.1198 26.353C20.0931 26.3267 20.0782 26.2911 20.0782 26.254V24.854C20.0782 24.8169 20.0931 24.7813 20.1198 24.755C20.1464 24.7287 20.1826 24.714 20.2202 24.714H21.5986C22.0126 24.7122 22.409 24.5493 22.7018 24.2609C22.9945 23.9725 23.1598 23.5819 23.1616 23.174V21.837C23.1616 21.7999 23.1766 21.7643 23.2033 21.738C23.2299 21.7118 23.266 21.697 23.3037 21.697H24.7247C24.7624 21.697 24.7985 21.7118 24.8252 21.738C24.8518 21.7643 24.8668 21.7999 24.8668 21.837V23.195C24.8668 23.6034 25.0315 23.9951 25.3246 24.2839C25.6177 24.5728 26.0153 24.735 26.4298 24.735H27.8082C27.8459 24.735 27.882 24.7497 27.9086 24.776C27.9353 24.8023 27.9503 24.8379 27.9503 24.875L27.929 26.254ZM27.7655 37.888C27.7655 38.0737 27.6907 38.2517 27.5574 38.383C27.4242 38.5143 27.2435 38.588 27.0551 38.588H20.9449C20.7565 38.588 20.5758 38.5143 20.4426 38.383C20.3093 38.2517 20.2345 38.0737 20.2345 37.888C20.2345 37.7023 20.3093 37.5243 20.4426 37.393C20.5758 37.2617 20.7565 37.188 20.9449 37.188H27.0551C27.2435 37.188 27.4242 37.2617 27.5574 37.393C27.6907 37.5243 27.7655 37.7023 27.7655 37.888ZM27.7655 41.003C27.7655 41.1887 27.6907 41.3667 27.5574 41.498C27.4242 41.6293 27.2435 41.703 27.0551 41.703H20.9449C20.7565 41.703 20.5758 41.6293 20.4426 41.498C20.3093 41.3667 20.2345 41.1887 20.2345 41.003C20.2345 40.8173 20.3093 40.6393 20.4426 40.508C20.5758 40.3767 20.7565 40.303 20.9449 40.303H27.0551C27.2435 40.303 27.4242 40.3767 27.5574 40.508C27.6907 40.6393 27.7655 40.8173 27.7655 41.003Z" fill="black"/>
</svg>
