<svg width="48" height="48" viewBox="0 0 48 48" fill="none" xmlns="http://www.w3.org/2000/svg">
<path d="M3.70057 45C3.7927 45.0005 3.88402 44.9829 3.96931 44.948C4.0546 44.9131 4.13217 44.8618 4.19758 44.7969L10.9037 38.0872C11.4556 38.4301 12.1069 38.5765 12.7524 38.5028C13.3978 38.4291 13.9994 38.1395 14.4598 37.681L15.4678 36.6654C15.995 37.1551 16.6875 37.4278 17.4069 37.4288C18.1691 37.4306 18.9013 37.131 19.4439 36.5954L19.9969 36.0351C20.3237 36.1583 20.6697 36.2224 21.0189 36.2242C21.3972 36.226 21.772 36.1527 22.1217 36.0084C22.4714 35.8641 22.789 35.6518 23.056 35.3837L38.7783 19.6251C39.4346 19.5873 40.0545 19.3108 40.5213 18.8477L40.6823 18.6796C41.1927 18.1687 41.4794 17.4759 41.4794 16.7535C41.4794 16.0312 41.1927 15.3384 40.6823 14.8275L39.5273 13.6718L41.2843 11.9139C41.6162 12.0742 41.9798 12.1579 42.3484 12.159C43.0077 12.167 43.6437 11.9155 44.1194 11.4586L44.2664 11.3115C44.7362 10.8402 45 10.2017 45 9.53606C45 8.87041 44.7362 8.23192 44.2664 7.76059L40.2623 3.73338C39.7924 3.26378 39.1554 3 38.4913 3C37.8271 3 37.1901 3.26378 36.7202 3.73338L36.6012 3.88046C36.2527 4.23064 36.015 4.67583 35.9179 5.16039C35.8208 5.64495 35.8686 6.1474 36.0552 6.60496L34.2492 8.39093L33.1012 7.25631C32.5887 6.74905 31.897 6.46453 31.1761 6.46453C30.4553 6.46453 29.7635 6.74905 29.2511 7.25631L29.0831 7.42441C28.5976 7.92111 28.3219 8.58574 28.3131 9.28042L12.6538 24.941C12.2621 25.3342 11.9918 25.8319 11.8751 26.3746C11.7584 26.9173 11.8003 27.4821 11.9957 28.0017L11.4427 28.562C10.9186 29.0944 10.6214 29.8094 10.6136 30.5566C10.6057 31.3038 10.8879 32.0249 11.4007 32.5682L10.3927 33.5767C9.94218 34.0293 9.65446 34.6186 9.57465 35.2524C9.49484 35.8861 9.62745 36.5284 9.9517 37.0786L3.20356 43.7883C3.07318 43.9196 3 44.0971 3 44.2821C3 44.4671 3.07318 44.6446 3.20356 44.7759C3.26721 44.8446 3.34399 44.8998 3.42936 44.9383C3.51473 44.9768 3.60695 44.9978 3.70057 45ZM37.5603 4.868L37.7073 4.72092C37.9158 4.51392 38.1976 4.39776 38.4913 4.39776C38.785 4.39776 39.0668 4.51392 39.2753 4.72092L43.2794 8.72712C43.4858 8.93452 43.6018 9.21532 43.6018 9.50805C43.6018 9.80077 43.4858 10.0816 43.2794 10.289L43.1324 10.4361C43.0296 10.5394 42.9074 10.6214 42.7729 10.6774C42.6383 10.7333 42.4941 10.7621 42.3484 10.7621C42.2027 10.7621 42.0584 10.7333 41.9238 10.6774C41.7893 10.6214 41.6671 10.5394 41.5643 10.4361L37.5603 6.42986C37.3555 6.22157 37.2407 5.9411 37.2407 5.64893C37.2407 5.35676 37.3555 5.07629 37.5603 4.868ZM36.8602 7.73257L40.1573 11.0314L38.5193 12.6773L35.2152 9.37848L36.8602 7.73257ZM30.0701 8.43296L30.2381 8.27187C30.3631 8.14497 30.5126 8.04478 30.6774 7.97737C30.8423 7.90995 31.0191 7.87671 31.1971 7.87965C31.3707 7.87928 31.5425 7.91381 31.7024 7.98119C31.8624 8.04857 32.0071 8.14742 32.1282 8.27187L39.6953 15.836C39.9416 16.0863 40.0796 16.4234 40.0796 16.7745C40.0796 17.1257 39.9416 17.4628 39.6953 17.713L39.5273 17.8741C39.2936 18.1049 38.9806 18.2377 38.6523 18.2453C38.5783 18.2313 38.5023 18.2313 38.4283 18.2453C38.1381 18.2137 37.8669 18.0855 37.6583 17.8811L30.0911 10.289C29.911 10.1059 29.7871 9.87496 29.7341 9.62361C29.7614 9.51321 29.7614 9.39783 29.7341 9.28743C29.742 8.96171 29.869 8.65021 30.0911 8.41195L30.0701 8.43296ZM28.7401 10.8213C28.8453 10.9853 28.9673 11.1378 29.1041 11.2765L36.6642 18.8477C36.8225 18.9965 36.9961 19.1279 37.1823 19.2399L33.4862 22.9379C32.4012 21.8873 31.2881 20.7177 30.2381 19.5971L29.2581 18.5605C27.9415 17.127 26.5389 15.7751 25.058 14.5123L28.7401 10.8213ZM13.6408 25.9355L24.057 15.5138C25.5398 16.7621 26.9426 18.1025 28.2571 19.527L29.2371 20.5566C30.2871 21.6842 31.3791 22.8328 32.5132 23.9254L22.0829 34.3612C21.8011 34.6333 21.4246 34.7854 21.0329 34.7854C20.6412 34.7854 20.2648 34.6333 19.9829 34.3612L13.6828 28.0577C13.538 27.9228 13.4217 27.7601 13.341 27.5794C13.2602 27.3986 13.2166 27.2035 13.2127 27.0055C13.2088 26.8076 13.2446 26.6109 13.3182 26.4271C13.3917 26.2433 13.5014 26.0761 13.6408 25.9355ZM12.4297 29.5495L12.8078 29.1783L18.8279 35.2016L18.4499 35.5728C18.3125 35.7117 18.149 35.822 17.9688 35.8973C17.7885 35.9725 17.5952 36.0113 17.3999 36.0113C17.2045 36.0113 17.0112 35.9725 16.8309 35.8973C16.6507 35.822 16.4872 35.7117 16.3498 35.5728L12.4227 31.6507C12.1484 31.3695 11.9953 30.9917 11.9966 30.5987C11.998 30.2057 12.1535 29.8289 12.4297 29.5495ZM11.4007 34.5643L12.4017 33.5627L14.5018 35.6639L13.5008 36.6654C13.3629 36.8034 13.1992 36.9128 13.019 36.9875C12.8389 37.0622 12.6458 37.1006 12.4507 37.1006C12.2557 37.1006 12.0626 37.0622 11.8825 36.9875C11.7023 36.9128 11.5386 36.8034 11.4007 36.6654C11.2628 36.5275 11.1535 36.3637 11.0788 36.1834C11.0042 36.0032 10.9658 35.81 10.9658 35.6148C10.9658 35.4197 11.0042 35.2265 11.0788 35.0463C11.1535 34.866 11.2628 34.7022 11.4007 34.5643ZM28.6071 16.5224C28.5423 16.4571 28.491 16.3797 28.4561 16.2945C28.4212 16.2094 28.4034 16.1182 28.4037 16.0261C28.404 15.9341 28.4224 15.8431 28.4579 15.7582C28.4934 15.6733 28.5453 15.5962 28.6106 15.5313C28.6758 15.4665 28.7532 15.4152 28.8383 15.3802C28.9234 15.3453 29.0146 15.3275 29.1066 15.3278C29.1985 15.3282 29.2896 15.3466 29.3744 15.3821C29.4593 15.4177 29.5363 15.4695 29.6011 15.5348L32.2472 18.1823C32.3775 18.3135 32.4507 18.491 32.4507 18.6761C32.4507 18.8611 32.3775 19.0386 32.2472 19.1698C32.116 19.3003 31.9386 19.3735 31.7536 19.3735C31.5687 19.3735 31.3913 19.3003 31.2601 19.1698L28.6071 16.5224ZM24.904 20.2274C24.7722 20.0955 24.6981 19.9167 24.6981 19.7301C24.6981 19.5436 24.7722 19.3648 24.904 19.2329C25.0358 19.101 25.2146 19.0269 25.401 19.0269C25.5874 19.0269 25.7662 19.101 25.898 19.2329L28.5441 21.8873C28.6097 21.9524 28.6618 22.0299 28.6973 22.1153C28.7328 22.2006 28.7511 22.2921 28.7511 22.3846C28.7511 22.4771 28.7328 22.5686 28.6973 22.654C28.6618 22.7393 28.6097 22.8168 28.5441 22.8819C28.479 22.9475 28.4016 22.9996 28.3163 23.0352C28.231 23.0707 28.1395 23.089 28.0471 23.089C27.9547 23.089 27.8632 23.0707 27.7779 23.0352C27.6926 22.9996 27.6151 22.9475 27.5501 22.8819L24.904 20.2274ZM21.2009 23.9254C21.0862 23.7915 21.0263 23.6191 21.0331 23.4428C21.0399 23.2666 21.113 23.0994 21.2376 22.9746C21.3623 22.8499 21.5294 22.7768 21.7056 22.77C21.8818 22.7632 22.054 22.8232 22.1879 22.9379L24.834 25.5854C24.9644 25.7166 25.0376 25.8941 25.0376 26.0791C25.0376 26.2642 24.9644 26.4417 24.834 26.5729C24.7028 26.7033 24.5254 26.7766 24.3405 26.7766C24.1556 26.7766 23.9781 26.7033 23.847 26.5729L21.2009 23.9254ZM17.5049 27.6305C17.4396 27.5652 17.3878 27.4876 17.3525 27.4023C17.3172 27.317 17.299 27.2256 17.299 27.1332C17.299 27.0409 17.3172 26.9494 17.3525 26.8641C17.3878 26.7788 17.4396 26.7012 17.5049 26.6359C17.5701 26.5706 17.6476 26.5188 17.7329 26.4835C17.8182 26.4481 17.9096 26.43 18.0019 26.43C18.0942 26.43 18.1856 26.4481 18.2708 26.4835C18.3561 26.5188 18.4336 26.5706 18.4989 26.6359L21.1449 29.2834C21.2105 29.3485 21.2626 29.426 21.2982 29.5113C21.3337 29.5966 21.352 29.6882 21.352 29.7807C21.352 29.8731 21.3337 29.9647 21.2982 30.05C21.2626 30.1354 21.2105 30.2128 21.1449 30.2779C21.0795 30.3428 21.0019 30.3942 20.9167 30.429C20.8314 30.4639 20.74 30.4816 20.6479 30.481C20.4638 30.4859 20.2853 30.4179 20.1509 30.2919L17.5049 27.6305Z" fill="black"/>
</svg>
