<svg width="48" height="48" viewBox="0 0 48 48" fill="none" xmlns="http://www.w3.org/2000/svg">
<path d="M25.334 12.8876C25.334 12.6933 25.4107 12.5069 25.5473 12.3695C25.6838 12.2321 25.8691 12.1549 26.0622 12.1549H28.8439C29.0371 12.1549 29.2223 12.2321 29.3589 12.3695C29.4954 12.5069 29.5722 12.6933 29.5722 12.8876C29.5722 13.0819 29.4954 13.2683 29.3589 13.4057C29.2223 13.5431 29.0371 13.6203 28.8439 13.6203H26.0622C25.8691 13.6203 25.6838 13.5431 25.5473 13.4057C25.4107 13.2683 25.334 13.0819 25.334 12.8876ZM28.8439 20.5954H26.0622C25.8691 20.5954 25.6838 20.6726 25.5473 20.81C25.4107 20.9474 25.334 21.1338 25.334 21.3281C25.334 21.5224 25.4107 21.7088 25.5473 21.8462C25.6838 21.9836 25.8691 22.0608 26.0622 22.0608H28.8439C29.0371 22.0608 29.2223 21.9836 29.3589 21.8462C29.4954 21.7088 29.5722 21.5224 29.5722 21.3281C29.5722 21.1338 29.4954 20.9474 29.3589 20.81C29.2223 20.6726 29.0371 20.5954 28.8439 20.5954ZM28.8439 29.0359H26.0622C25.8691 29.0359 25.6838 29.1131 25.5473 29.2505C25.4107 29.3879 25.334 29.5742 25.334 29.7685C25.334 29.9629 25.4107 30.1492 25.5473 30.2866C25.6838 30.424 25.8691 30.5012 26.0622 30.5012H28.8439C29.0371 30.5012 29.2223 30.424 29.3589 30.2866C29.4954 30.1492 29.5722 29.9629 29.5722 29.7685C29.5722 29.5742 29.4954 29.3879 29.3589 29.2505C29.2223 29.1131 29.0371 29.0359 28.8439 29.0359ZM28.8439 37.4763H26.4846C26.2914 37.4763 26.1062 37.5535 25.9696 37.6909C25.8331 37.8283 25.7564 38.0147 25.7564 38.209C25.7564 38.4033 25.8331 38.5897 25.9696 38.7271C26.1062 38.8645 26.2914 38.9417 26.4846 38.9417H28.8439C29.0371 38.9417 29.2223 38.8645 29.3589 38.7271C29.4954 38.5897 29.5722 38.4033 29.5722 38.209C29.5722 38.0147 29.4954 37.8283 29.3589 37.6909C29.2223 37.5535 29.0371 37.4763 28.8439 37.4763ZM20.2438 25.9V8.1545C19.552 7.89158 18.9738 7.3929 18.6097 6.74525C18.2457 6.09761 18.1189 5.34203 18.2514 4.61002C18.3839 3.87801 18.7673 3.21594 19.335 2.73904C19.9026 2.26214 20.6185 2.00062 21.358 2H33.8467C34.5841 2.00168 35.2977 2.26271 35.8639 2.73792C36.4302 3.21313 36.8134 3.87259 36.9474 4.60214C37.0814 5.33169 36.9576 6.08541 36.5974 6.73281C36.2373 7.38021 35.6635 7.88054 34.9754 8.14718V38.5534C34.9854 40.4459 34.275 42.2705 32.9901 43.6527C31.7051 45.0349 29.9431 45.8698 28.0656 45.986C26.1881 46.1023 24.3376 45.491 22.8939 44.2778C21.4502 43.0646 20.5228 41.3414 20.3021 39.4619C19.8497 39.6225 19.3807 39.7307 18.9039 39.7843C18.6709 39.7843 18.4306 39.7843 18.1757 39.7843C17.9209 39.7843 17.6878 39.7843 17.4475 39.7843C16.3794 39.6741 15.3608 39.2754 14.4994 38.6306C13.6379 37.9857 12.9658 37.1186 12.554 36.1209C12.0897 35.0641 11.9125 33.9023 12.0404 32.7541C12.1683 31.6059 12.5968 30.5124 13.2822 29.5854L15.9256 26.0685C16.1714 25.7381 16.4871 25.4668 16.8499 25.2743C17.2127 25.0818 17.6135 24.9728 18.0233 24.9553C18.4331 24.9377 18.8417 25.0121 19.2194 25.1729C19.5972 25.3338 19.9346 25.5771 20.2074 25.8853L20.2438 25.9ZM33.519 17.8405C31.8277 18.3226 30.0599 18.4718 28.3124 18.2801C27.9847 18.2435 27.6643 18.1922 27.3366 18.1482C26.8559 18.075 26.3972 18.0017 25.9384 17.9724C24.4545 17.9 22.9818 18.264 21.7002 19.0201V27.7903L23.062 29.6C23.7487 30.5264 24.1781 31.62 24.3061 32.7685C24.434 33.917 24.256 35.0791 23.7902 36.1355C23.3421 37.178 22.6163 38.0757 21.693 38.7292C21.7161 40.3051 22.3606 41.8072 23.4845 42.9051C24.6084 44.003 26.1198 44.6066 27.6861 44.5833C29.2524 44.56 30.7453 43.9116 31.8365 42.7808C32.9277 41.6499 33.5276 40.1293 33.5045 38.5534L33.519 17.8405ZM33.519 8.31569H21.7002V17.3863C23.0467 16.7449 24.5312 16.4527 26.0185 16.5364C26.5501 16.5364 27.0598 16.6463 27.555 16.7195L28.4726 16.8441C30.1724 17.0276 31.8915 16.8503 33.519 16.3239V8.31569ZM21.358 6.85034H33.8467C34.0804 6.86569 34.3146 6.83266 34.5351 6.75326C34.7555 6.67387 34.9574 6.54981 35.1282 6.38876C35.2991 6.22771 35.4353 6.0331 35.5284 5.81696C35.6215 5.60083 35.6696 5.36777 35.6696 5.1322C35.6696 4.89664 35.6215 4.66358 35.5284 4.44744C35.4353 4.23131 35.2991 4.0367 35.1282 3.87565C34.9574 3.7146 34.7555 3.59054 34.5351 3.51115C34.3146 3.43175 34.0804 3.39871 33.8467 3.41407H21.358C20.9244 3.44258 20.5178 3.63599 20.2207 3.95507C19.9236 4.27415 19.7583 4.69499 19.7583 5.1322C19.7583 5.56942 19.9236 5.99026 20.2207 6.30934C20.5178 6.62842 20.9244 6.82183 21.358 6.85034ZM19.2535 26.9697C19.1307 26.8026 18.9704 26.667 18.7856 26.574C18.6008 26.4811 18.3969 26.4334 18.1903 26.4348C17.9826 26.4328 17.7774 26.4802 17.5913 26.5732C17.4053 26.6661 17.2438 26.802 17.1198 26.9697L14.4837 30.4866C13.9502 31.2033 13.6157 32.0499 13.5146 32.9396C13.4135 33.8293 13.5494 34.73 13.9084 35.5494C14.2217 36.3044 14.7311 36.9606 15.3833 37.4492C16.0355 37.9378 16.8063 38.2407 17.615 38.3262C17.9952 38.3629 18.3781 38.3629 18.7583 38.3262C19.568 38.2412 20.3401 37.9386 20.9935 37.45C21.647 36.9614 22.1577 36.3049 22.4721 35.5494C22.8312 34.73 22.9671 33.8293 22.866 32.9396C22.7649 32.0499 22.4304 31.2033 21.8969 30.4866L19.2535 26.9697Z" fill="black"/>
</svg>
