<svg width="48" height="48" viewBox="0 0 48 48" fill="none" xmlns="http://www.w3.org/2000/svg">
<path d="M43.2548 39.4835C43.1198 39.2372 42.8691 39.097 42.5748 39.1015C40.482 39.1973 39.1185 38.7778 38.5175 37.8515C37.6643 36.5367 38.463 34.2891 38.828 33.5612C44.5969 23.2424 40.5264 12.0305 40.3641 11.5998C39.3044 8.14202 37.3923 5.68421 34.68 4.29416C30.3129 2.05613 25.3213 3.32747 24.1731 3.66883C23.0242 3.32665 18.0333 2.05679 13.6662 4.29416C10.954 5.68421 9.04183 8.14202 7.99617 11.5578C7.81991 12.0305 3.74932 23.2423 9.50419 33.5346C9.51749 33.5618 10.8441 36.2801 9.83012 37.8485C9.22983 38.7769 7.86489 39.198 5.77135 39.1014C5.48229 39.0977 5.2264 39.2371 5.09143 39.4834C4.95573 39.7297 4.97198 40.032 5.1342 40.2621C5.36284 40.5878 7.59841 43.3807 16.819 43.5193V44.2626C16.819 44.6696 17.1493 45 17.5564 45C17.9634 45 18.2938 44.6696 18.2938 44.2626V40.0567C18.704 40.3481 19.1243 40.6169 19.5339 40.8774L19.7883 41.0388C20.244 41.3294 20.6142 41.6745 20.9719 42.0078C21.7705 42.7541 22.5964 43.5255 24.1731 43.5255C25.7298 43.5255 26.5395 42.7703 27.3226 42.0403C27.6449 41.7394 27.9782 41.429 28.3786 41.1568C28.8664 40.8262 29.4613 40.4961 30.0927 40.1486V42.6192C30.0799 42.6734 30.0725 42.7296 30.0725 42.7877C30.0725 42.8459 30.0799 42.9021 30.0927 42.9563V44.2626C30.0927 44.6696 30.423 45 30.83 45C31.2371 45 31.5674 44.6696 31.5674 44.2626V43.5188C40.7543 43.3727 42.9836 40.5874 43.2119 40.2621C43.3742 40.0321 43.3905 39.7297 43.2548 39.4835ZM27.5513 39.9365C27.0557 40.2721 26.6627 40.6385 26.3168 40.9616C25.6133 41.6171 25.1487 42.0508 24.1731 42.0508C23.1783 42.0508 22.7004 41.6054 21.9785 40.9306C21.5906 40.5686 21.1511 40.1585 20.581 39.795L20.3244 39.632C19.8377 39.323 19.3776 39.031 18.9381 38.7051L18.7699 38.5797C18.0435 38.0407 17.3578 37.5311 16.7353 36.9397C13.5511 33.917 13.1116 29.103 13.1116 24.3525C13.1116 22.6852 13.8645 21.1912 15.2531 20.1292L24.173 12.7719L33.1143 20.1462C34.4814 21.1912 35.2344 22.6852 35.2344 24.3525C35.2344 24.7603 35.2374 25.1726 35.2403 25.5877C35.2691 29.7918 35.2994 34.1382 32.3482 36.9397C31.6358 37.6159 30.5297 38.225 29.4597 38.8135C28.7688 39.194 28.1161 39.5531 27.5513 39.9365ZM31.5675 42.0437V39.314C32.2332 38.9144 32.8586 38.4889 33.3637 38.0097C36.7795 34.7673 36.7448 29.8855 36.7153 25.5782C36.7123 25.166 36.7094 24.7568 36.7094 24.3526C36.7094 22.2465 35.7264 20.2857 34.0318 18.9915L24.915 11.472C24.4851 11.1173 23.8612 11.118 23.4313 11.472L14.3358 18.9746C12.6198 20.2858 11.6368 22.2466 11.6368 24.3527C11.6368 29.4328 12.1323 34.6036 15.72 38.0098C16.0788 38.3506 16.456 38.6656 16.8383 38.9663C16.826 39.0196 16.819 39.0749 16.819 39.1319V42.0444C12.1108 41.9698 9.39952 41.1677 7.92097 40.4681C9.38844 40.2248 10.443 39.6171 11.0683 38.6496C12.5542 36.3525 10.8913 33.0097 10.8058 32.8416C5.3768 23.131 9.33754 12.1825 9.39213 12.032C10.3294 8.9739 11.9908 6.8132 14.33 5.61123C18.6329 3.40046 23.8849 5.12235 23.9379 5.14074C24.0898 5.19164 24.2557 5.19237 24.4099 5.14C24.4615 5.12226 29.6913 3.3952 34.0075 5.6068C36.3518 6.80803 38.0154 8.96946 38.9682 12.074C39.0087 12.1831 42.9798 23.1118 37.5265 32.868C37.455 33.0096 35.792 36.3523 37.278 38.6494C37.9048 39.6198 38.9637 40.2281 40.4371 40.4701C38.9679 41.1672 36.2713 41.9656 31.5675 42.0437Z" fill="black"/>
</svg>
