<svg width="64" height="64" viewBox="0 0 64 64" fill="none" xmlns="http://www.w3.org/2000/svg">
<g id="Frame 53">
<circle id="Ellipse 5" cx="32" cy="32" r="32" fill="#CBE1F2"/>
<path id="Ellipse 3" d="M32 -9.15527e-05C38.7577 -9.14721e-05 45.342 2.13927 50.8091 6.11137C56.2763 10.0835 60.3456 15.6844 62.4338 22.1114C64.5221 28.5384 64.5221 35.4615 62.4338 41.8885C60.3456 48.3154 56.2762 53.9164 50.8091 57.8885C45.342 61.8606 38.7577 63.9999 32 63.9999C25.2423 63.9999 18.658 61.8605 13.1909 57.8885C7.72375 53.9164 3.65444 48.3154 1.56619 41.8884C-0.522064 35.4615 -0.522063 28.5383 1.56619 22.1114L32 31.9999L32 -9.15527e-05Z" fill="#679FD3"/>
</g>
</svg>
