<svg width="64" height="64" viewBox="0 0 64 64" fill="none" xmlns="http://www.w3.org/2000/svg">
<g id="chart-circle">
<path id="chart-circle_2" d="M32 2C35.9397 2 39.8407 2.77597 43.4805 4.28361C47.1203 5.79126 50.4274 8.00104 53.2132 10.7868C55.999 13.5726 58.2087 16.8797 59.7164 20.5195C61.224 24.1593 62 28.0603 62 32C62 35.9397 61.224 39.8407 59.7164 43.4805C58.2087 47.1203 55.999 50.4275 53.2132 53.2132C50.4274 55.999 47.1203 58.2087 43.4805 59.7164C39.8407 61.224 35.9396 62 32 62C28.0603 62 24.1593 61.224 20.5195 59.7164C16.8797 58.2087 13.5725 55.999 10.7868 53.2132C8.00103 50.4274 5.79125 47.1203 4.28361 43.4805C2.77597 39.8407 2 35.9396 2 32C2 28.0603 2.77598 24.1592 4.28362 20.5195C5.79126 16.8797 8.00105 13.5725 10.7868 10.7868C13.5726 8.00103 16.8797 5.79125 20.5195 4.28361C24.1593 2.77597 28.0604 2 32 2L32 2Z" stroke="#CBE1F2" stroke-width="4"/>
<path id="chart-progress" d="M32 1.99991C35.9397 1.99991 39.8407 2.77588 43.4805 4.28352C47.1203 5.79116 50.4274 8.00095 53.2132 10.7867C55.999 13.5725 58.2087 16.8796 59.7164 20.5194C61.224 24.1592 62 28.0603 62 31.9999C62 35.9396 61.224 39.8406 59.7164 43.4804C58.2087 47.1202 55.999 50.4274 53.2132 53.2131C50.4274 55.9989 47.1203 58.2087 43.4805 59.7163C39.8407 61.2239 35.9396 61.9999 32 61.9999" stroke="#679FD3" stroke-width="4"/>
</g>
</svg>
